<svg width="40" height="40" viewBox="0 0 40 40" fill="none" xmlns="http://www.w3.org/2000/svg">
<g clip-path="url(#clip0_80_938)">
<path d="M19.35 19.8167C23.0319 19.8167 26.0167 16.8319 26.0167 13.15C26.0167 9.46811 23.0319 6.48334 19.35 6.48334C15.6681 6.48334 12.6834 9.46811 12.6834 13.15C12.6834 16.8319 15.6681 19.8167 19.35 19.8167Z" stroke="#1C1C1E" stroke-width="2" stroke-linecap="round" stroke-linejoin="round"/>
<path d="M26.9334 33.4667C27.8085 33.448 28.6633 33.1998 29.4125 32.7471C30.1616 32.2945 30.7788 31.653 31.2023 30.887C31.6258 30.121 31.8407 29.2572 31.8257 28.3821C31.8107 27.5069 31.5662 26.651 31.1167 25.9C29.9304 24.0275 28.29 22.4852 26.3479 21.4166C24.4058 20.3479 22.2251 19.7876 20.0084 19.7876C17.7917 19.7876 15.611 20.3479 13.6689 21.4166C11.7268 22.4852 10.0864 24.0275 8.90007 25.9C8.45055 26.651 8.20605 27.5069 8.19104 28.3821C8.17604 29.2572 8.39102 30.121 8.81452 30.887C9.23802 31.653 9.85519 32.2945 10.6043 32.7471C11.3535 33.1998 12.2083 33.448 13.0834 33.4667H26.9334Z" stroke="#1C1C1E" stroke-width="2" stroke-linecap="round" stroke-linejoin="round"/>
</g>
<defs>
<clipPath id="clip0_80_938">
<rect width="40" height="40" fill="white"/>
</clipPath>
</defs>
</svg>
