<svg width="40" height="40" viewBox="0 0 40 40" fill="none" xmlns="http://www.w3.org/2000/svg">
<path d="M34.1356 12.189H5.86424C4.94388 12.189 4.18872 12.9451 4.18872 13.8666V25.3023C4.18872 26.2237 4.94388 26.9798 5.86424 26.9798H34.1356C35.056 26.9798 35.8111 26.2237 35.8111 25.3023V13.8666C35.8111 12.9451 35.056 12.189 34.1356 12.189Z" fill="url(#paint0_linear_425_476)"/>
<path d="M14.5378 17.2014C15.4632 17.2014 16.2133 16.4503 16.2133 15.5238C16.2133 14.5973 15.4632 13.8463 14.5378 13.8463C13.6125 13.8463 12.8623 14.5973 12.8623 15.5238C12.8623 16.4503 13.6125 17.2014 14.5378 17.2014Z" fill="white"/>
<path d="M17.5349 14.3897H19.3992V25.0221H17.5349V14.3897Z" fill="white"/>
<path d="M21.0513 18.0519H22.9392V24.9984H21.0513V18.0519Z" fill="white"/>
<path d="M12.6736 17.9811C12.0836 17.9811 11.5173 18.1228 10.9981 18.4064V14.3897H9.13379V21.5252C9.13379 23.4863 10.7149 25.0693 12.6736 25.0693C14.6323 25.0693 16.2134 23.4863 16.2134 21.5252C16.2134 19.5641 14.6323 17.9811 12.6736 17.9811ZM12.6736 23.2264C11.7297 23.2264 10.9745 22.4703 10.9745 21.5252C10.9745 20.5801 11.7297 19.824 12.6736 19.824C13.6176 19.824 14.3727 20.5801 14.3727 21.5252C14.3727 22.4703 13.6176 23.2264 12.6736 23.2264Z" fill="white"/>
<path d="M14.5378 17.2014C15.4632 17.2014 16.2133 16.4503 16.2133 15.5238C16.2133 14.5973 15.4632 13.8463 14.5378 13.8463C13.6125 13.8463 12.8623 14.5973 12.8623 15.5238C12.8623 16.4503 13.6125 17.2014 14.5378 17.2014Z" fill="url(#paint1_linear_425_476)"/>
<path d="M17.5349 14.3897H19.3992V25.0221H17.5349V14.3897Z" fill="white"/>
<path d="M21.0513 18.0519H22.9392V24.9984H21.0513V18.0519Z" fill="white"/>
<path d="M12.6736 17.9811C12.0836 17.9811 11.5173 18.1228 10.9981 18.4064V14.3897H9.13379V21.5252C9.13379 23.4863 10.7149 25.0693 12.6736 25.0693C14.6323 25.0693 16.2134 23.4863 16.2134 21.5252C16.2134 19.5641 14.6323 17.9811 12.6736 17.9811ZM12.6736 23.2264C11.7297 23.2264 10.9745 22.4703 10.9745 21.5252C10.9745 20.5801 11.7297 19.824 12.6736 19.824C13.6176 19.824 14.3727 20.5801 14.3727 21.5252C14.3727 22.4703 13.6176 23.2264 12.6736 23.2264Z" fill="white"/>
<path d="M29.0848 24.9944H31.4919L28.5893 21.2613L31.2087 18.0479H29.0141L26.4654 21.2849V14.3857H24.6011V25.018H26.4654V21.3085L29.0848 24.9944Z" fill="white"/>
<defs>
<linearGradient id="paint0_linear_425_476" x1="19.9992" y1="26.8655" x2="19.9992" y2="12.2549" gradientUnits="userSpaceOnUse">
<stop stop-color="#5A5A5A"/>
<stop offset="0.146" stop-color="#484848"/>
<stop offset="0.52" stop-color="#212121"/>
<stop offset="0.817" stop-color="#080808"/>
<stop offset="1"/>
</linearGradient>
<linearGradient id="paint1_linear_425_476" x1="13.3534" y1="16.693" x2="15.7387" y2="14.3446" gradientUnits="userSpaceOnUse">
<stop stop-color="#E52F08"/>
<stop offset="1" stop-color="#E94F96"/>
</linearGradient>
</defs>
</svg>
