<svg width="40" height="40" viewBox="0 0 40 40" fill="none" xmlns="http://www.w3.org/2000/svg">
<g clip-path="url(#clip0_80_938)">
<path d="M8.84998 8.33335H3.84998M9.24997 8.33334L12.85 21.4C13.1505 22.4304 13.7745 23.3368 14.63 23.9851C15.4854 24.6334 16.5267 24.9893 17.6 25H32.1666V8.33334H9.24997ZM20.5166 30.8333C20.5166 32.2141 19.3974 33.3333 18.0166 33.3333C16.6359 33.3333 15.5166 32.2141 15.5166 30.8333C15.5166 29.4526 16.6359 28.3333 18.0166 28.3333C19.3974 28.3333 20.5166 29.4526 20.5166 30.8333ZM32.1833 30.8333C32.1833 32.2141 31.064 33.3333 29.6833 33.3333C28.3026 33.3333 27.1833 32.2141 27.1833 30.8333C27.1833 29.4526 28.3026 28.3333 29.6833 28.3333C31.064 28.3333 32.1833 29.4526 32.1833 30.8333Z" stroke="#1C1C1E" stroke-width="2" stroke-linecap="round" stroke-linejoin="round"/>
</g>
<defs>
<clipPath id="clip0_80_938">
<rect width="40" height="40" fill="white"/>
</clipPath>
</defs>
</svg>
