<svg width="36" height="36" viewBox="0 0 36 36" fill="none" xmlns="http://www.w3.org/2000/svg">
<g clip-path="url(#clip0_306_550)">
<path fill-rule="evenodd" clip-rule="evenodd" d="M6.375 12C6.375 7.85786 9.73287 4.5 13.875 4.5H25.5C29.6421 4.5 33 7.85786 33 12V24C33 28.1421 29.6421 31.5 25.5 31.5H4.5C3.94876 31.5 3.44193 31.1976 3.18006 30.7126C2.9182 30.2275 2.94349 29.6379 3.24593 29.177L5.63722 25.5331C6.11856 24.7997 6.375 23.9415 6.375 23.0642V12ZM13.875 7.5C11.3897 7.5 9.375 9.51471 9.375 12V23.0642C9.375 24.5264 8.9476 25.9567 8.14536 27.1791L7.27853 28.5H25.5C27.9853 28.5 30 26.4853 30 24V12C30 9.51472 27.9853 7.5 25.5 7.5H13.875Z" fill="white"/>
<path d="M21 18C21 18.8284 20.3284 19.5 19.5 19.5C18.6716 19.5 18 18.8284 18 18C18 17.1716 18.6716 16.5 19.5 16.5C20.3284 16.5 21 17.1716 21 18Z" fill="white"/>
<path d="M27 18C27 18.8284 26.3284 19.5 25.5 19.5C24.6716 19.5 24 18.8284 24 18C24 17.1716 24.6716 16.5 25.5 16.5C26.3284 16.5 27 17.1716 27 18Z" fill="white"/>
<path d="M15 18C15 18.8284 14.3284 19.5 13.5 19.5C12.6716 19.5 12 18.8284 12 18C12 17.1716 12.6716 16.5 13.5 16.5C14.3284 16.5 15 17.1716 15 18Z" fill="white"/>
</g>
<defs>
<clipPath id="clip0_306_550">
<rect width="36" height="36" fill="white"/>
</clipPath>
</defs>
</svg>
