<svg width="40" height="40" viewBox="0 0 40 40" fill="none" xmlns="http://www.w3.org/2000/svg">
<g clip-path="url(#clip0_80_938)">
<path d="M14.5 25.7167C18.5312 29.4081 23.4536 31.9871 28.7834 33.2C29.6081 33.4672 30.5045 33.4027 31.2824 33.0199C32.0603 32.6372 32.6585 31.9665 32.95 31.15L33.3 30.1833C33.5731 29.3586 33.5134 28.4598 33.1336 27.6784C32.7538 26.897 32.084 26.2948 31.2667 26L27.55 24.7167C26.7274 24.4486 25.8328 24.5109 25.0553 24.8903C24.2778 25.2698 23.6782 25.9366 23.3834 26.75C21.2331 25.7123 19.2725 24.3207 17.5834 22.6333C15.8949 20.9362 14.5084 18.9634 13.4834 16.8V16.8C14.3032 16.4956 14.9705 15.8812 15.3416 15.0893C15.7126 14.2974 15.7575 13.3914 15.4667 12.5667L14.15 8.90002C13.8489 8.07715 13.2359 7.40593 12.4436 7.03163C11.6514 6.65733 10.7436 6.61004 9.91671 6.9L8.98337 7.23335C8.1596 7.53766 7.4892 8.15473 7.11783 8.95052C6.74646 9.74631 6.70413 10.6565 7.00004 11.4833V11.4833C8.31489 16.7635 10.8881 21.6469 14.5 25.7167Z" stroke="#1C1C1E" stroke-width="2" stroke-linecap="round" stroke-linejoin="round"/>
</g>
<defs>
<clipPath id="clip0_80_938">
<rect width="40" height="40" fill="white"/>
</clipPath>
</defs>
</svg>
