<svg width="40" height="40" viewBox="0 0 40 40" fill="none" xmlns="http://www.w3.org/2000/svg">
<path d="M14.7463 16.5H6.58301M14.7463 14.1667H6.58301M14.7463 18.8334H6.58301M22.9562 25.8684V16.535H29.1836C29.6646 16.5251 30.1345 16.6807 30.5145 16.9759C30.8945 17.2711 31.1616 17.688 31.2711 18.1567L32.8337 25.8684H28.0524M11.2594 25.8684H8.92703V12.3C8.92703 11.8668 9.09905 11.4514 9.40524 11.1451C9.71142 10.8388 10.1267 10.6667 10.5597 10.6667H21.2885C21.7216 10.6667 22.1368 10.8388 22.443 11.1451C22.7492 11.4514 22.9212 11.8668 22.9212 12.3V25.8684H16.4605M23.3294 26.2184C23.3294 27.507 24.3736 28.5517 25.6617 28.5517C26.9499 28.5517 27.9941 27.507 27.9941 26.2184C27.9941 24.9297 26.9499 23.885 25.6617 23.885C24.3736 23.885 23.3294 24.9297 23.3294 26.2184ZM11.5859 26.2184C11.5859 27.507 12.6302 28.5517 13.9183 28.5517C15.2064 28.5517 16.2506 27.507 16.2506 26.2184C16.2506 24.9297 15.2064 23.885 13.9183 23.885C12.6302 23.885 11.5859 24.9297 11.5859 26.2184Z" stroke="#1C1C1E" stroke-linecap="round" stroke-linejoin="round"/>
</svg>
