<svg width="40" height="40" viewBox="0 0 40 40" fill="none" xmlns="http://www.w3.org/2000/svg">
<g clip-path="url(#clip0_425_476)">
<path fill-rule="evenodd" clip-rule="evenodd" d="M4.2415 17.1185H6.77998C8.14292 17.1185 8.65598 17.8085 8.5767 18.8221C8.44565 20.4957 7.43393 21.4216 6.09195 21.4216H5.41441C5.23029 21.4216 5.10644 21.5434 5.05664 21.8737L4.76898 23.7936C4.74998 23.9181 4.68445 23.9902 4.58616 24H2.99126C2.84121 24 2.78813 23.8853 2.82745 23.637L3.79985 17.4821C3.83786 17.2358 3.97284 17.1185 4.2415 17.1185Z" fill="#009EE3"/>
<path fill-rule="evenodd" clip-rule="evenodd" d="M15.2625 17.0045C16.1189 17.0045 16.9092 17.469 16.801 18.6269C16.67 20.0029 15.9328 20.7643 14.7697 20.7676H13.7534C13.6073 20.7676 13.5365 20.8869 13.4985 21.1313L13.3019 22.3809C13.2725 22.5696 13.1755 22.6626 13.0326 22.6626H12.0871C11.9364 22.6626 11.884 22.5663 11.9174 22.3507L12.6978 17.3426C12.7365 17.0962 12.8289 17.0045 12.9973 17.0045H15.2605H15.2625ZM13.7226 19.6858H14.4926C14.9742 19.6674 15.2939 19.3339 15.326 18.7324C15.3457 18.3608 15.0947 18.0948 14.6957 18.0968L13.971 18.1001L13.7226 19.6858ZM19.3716 22.2793C19.4581 22.2007 19.5459 22.16 19.5335 22.257L19.5027 22.489C19.4869 22.6102 19.5348 22.6744 19.6475 22.6744H20.4875C20.6291 22.6744 20.6979 22.6174 20.7326 22.3986L21.2503 19.1498C21.2765 18.9866 21.2365 18.9067 21.1127 18.9067H20.1887C20.1055 18.9067 20.0649 18.9532 20.0433 19.0803L20.0092 19.2802C19.9915 19.3844 19.9437 19.4027 19.8991 19.2979C19.7425 18.927 19.3428 18.7606 18.7852 18.7737C17.4897 18.8005 16.6163 19.7841 16.5226 21.0448C16.4505 22.0198 17.149 22.7858 18.0703 22.7858C18.7386 22.7858 19.0374 22.5892 19.3742 22.2813L19.3716 22.2793ZM18.6679 21.7793C18.1102 21.7793 17.7217 21.3344 17.8023 20.7892C17.8829 20.2441 18.4045 19.7991 18.9621 19.7991C19.5197 19.7991 19.9083 20.2441 19.8277 20.7892C19.7471 21.3344 19.2262 21.7793 18.6679 21.7793ZM22.8943 18.8962H22.0425C21.8669 18.8962 21.7954 19.0272 21.8511 19.1884L22.9087 22.2852L21.8714 23.7589C21.7843 23.8821 21.8518 23.9941 21.9743 23.9941H22.9317C22.9874 24.0006 23.0439 23.9908 23.0943 23.9661C23.1448 23.9413 23.187 23.9026 23.216 23.8545L26.4687 19.1891C26.569 19.0456 26.5218 18.8949 26.3574 18.8949H25.4511C25.2958 18.8949 25.2336 18.9565 25.1445 19.0856L23.7881 21.0513L23.182 19.081C23.1466 18.9617 23.0581 18.8962 22.895 18.8962H22.8943Z" fill="#113984"/>
<path fill-rule="evenodd" clip-rule="evenodd" d="M29.8524 17.0044C30.7088 17.0044 31.4991 17.469 31.391 18.6268C31.2599 20.0029 30.5227 20.7643 29.3597 20.7676H28.344C28.1979 20.7676 28.1271 20.8868 28.0891 21.1313L27.8925 22.3808C27.863 22.5695 27.7661 22.6626 27.6232 22.6626H26.6777C26.527 22.6626 26.4745 22.5663 26.508 22.3507L27.2897 17.3412C27.3283 17.0948 27.4207 17.0031 27.5891 17.0031H29.8524V17.0044ZM28.3125 19.6857H29.0825C29.5641 19.6674 29.8839 19.3339 29.916 18.7323C29.9356 18.3608 29.6847 18.0948 29.2856 18.0967L28.5609 18.1L28.3125 19.6857ZM33.9615 22.2793C34.048 22.2006 34.1358 22.16 34.1234 22.257L34.0926 22.489C34.0769 22.6102 34.1247 22.6744 34.2374 22.6744H35.0775C35.219 22.6744 35.2878 22.6174 35.3225 22.3985L35.8402 19.1497C35.8664 18.9866 35.8264 18.9066 35.7026 18.9066H34.78C34.6967 18.9066 34.6561 18.9532 34.6345 19.0803L34.6004 19.2801C34.5827 19.3843 34.5349 19.4027 34.4903 19.2978C34.3337 18.927 33.934 18.7605 33.3764 18.7736C32.0809 18.8005 31.2075 19.784 31.1138 21.0448C31.0417 22.0198 31.7402 22.7858 32.6615 22.7858C33.3299 22.7858 33.6287 22.5892 33.9655 22.2812L33.9615 22.2793ZM33.2585 21.7793C32.7008 21.7793 32.3123 21.3344 32.3929 20.7892C32.4734 20.244 32.995 19.7991 33.5527 19.7991C34.1103 19.7991 34.4989 20.244 34.4183 20.7892C34.3377 21.3344 33.8161 21.7793 33.2585 21.7793ZM37.133 22.6796H36.1632C36.1463 22.6804 36.1295 22.6774 36.1139 22.6709C36.0984 22.6644 36.0844 22.6545 36.0731 22.642C36.0617 22.6295 36.0533 22.6146 36.0484 22.5985C36.0435 22.5823 36.0422 22.5653 36.0446 22.5486L36.8965 17.1519C36.9046 17.115 36.9249 17.082 36.9542 17.0582C36.9835 17.0344 37.0199 17.0213 37.0576 17.0208H38.0274C38.0443 17.0201 38.0611 17.023 38.0767 17.0295C38.0923 17.036 38.1063 17.0459 38.1176 17.0584C38.1289 17.0709 38.1373 17.0858 38.1423 17.102C38.1472 17.1181 38.1485 17.1351 38.146 17.1519L37.2942 22.5486C37.2863 22.5857 37.2661 22.619 37.2368 22.643C37.2075 22.6671 37.1709 22.6804 37.133 22.6809V22.6796Z" fill="#009EE3"/>
<path fill-rule="evenodd" clip-rule="evenodd" d="M2.65401 15H5.19511C5.91065 15 6.75987 15.0229 7.32733 15.5242C7.70672 15.859 7.90592 16.3918 7.86005 16.9658C7.7041 18.906 6.54364 19.9931 4.98674 19.9931H3.73388C3.52026 19.9931 3.37938 20.1346 3.3191 20.5173L2.96919 22.7452C2.94626 22.8893 2.88401 22.9745 2.77261 22.985H1.20458C1.03093 22.985 0.969336 22.8539 1.01455 22.5643L2.1416 15.4233C2.18681 15.1363 2.34473 15 2.65401 15Z" fill="#113984"/>
<path fill-rule="evenodd" clip-rule="evenodd" d="M3.35571 20.2912L3.79932 17.4821C3.83798 17.2357 3.97297 17.1178 4.24163 17.1178H6.7801C7.20013 17.1178 7.54021 17.1833 7.80624 17.3045C7.55135 19.0318 6.43413 19.9911 4.97158 19.9911H3.72069C3.55295 19.9918 3.42976 20.0756 3.35571 20.2912Z" fill="#172C70"/>
</g>
<defs>
<clipPath id="clip0_425_476">
<rect width="37.1487" height="9" fill="white" transform="translate(1 15)"/>
</clipPath>
</defs>
</svg>
