<svg width="40" height="40" viewBox="0 0 40 40" fill="none" xmlns="http://www.w3.org/2000/svg">
<path d="M10 18.0091L16.3042 13.0798C18.079 11.6921 18.9664 10.9982 20 10.9982C21.0336 10.9982 21.921 11.6921 23.6958 13.0798L30 18.0091" stroke="black" stroke-width="1.5" stroke-linecap="round" stroke-linejoin="round"/>
<path d="M28 17L27.3102 23.6216C27.0439 26.1786 26.9107 27.457 26.0547 28.2285C25.1987 29 23.9133 29 21.3425 29H18.6575C16.0867 29 14.8013 29 13.9453 28.2285C13.0893 27.457 12.9561 26.1786 12.6898 23.6216L12 17" stroke="black" stroke-width="1.5" stroke-linecap="round" stroke-linejoin="round"/>
<path d="M17 21.5C17 19.8431 18.3431 18.5 20 18.5C21.6569 18.5 23 19.8431 23 21.5C23 23.1569 21.6569 24.5 20 24.5C18.3431 24.5 17 23.1569 17 21.5Z" stroke="black" stroke-width="1.5" stroke-linecap="round" stroke-linejoin="round"/>
</svg>
