<svg width="40" height="40" viewBox="0 0 40 40" fill="none" xmlns="http://www.w3.org/2000/svg">
<g clip-path="url(#clip0_167_417)">
<path d="M22.8167 24.2667L28.1667 21.8333L33.5 24.2667M22.8167 24.2667L28.1667 26.7M22.8167 24.2667V31.0333L28.1667 33.4667L33.5 31.0333V24.2667M28.1667 26.7L33.5 24.2667M28.1667 26.7V33.1333M24.8333 35H9.83333C8.94928 35 8.10143 34.6488 7.47631 34.0237C6.85119 33.3986 6.5 32.5507 6.5 31.6667V8.33333C6.5 7.44928 6.85119 6.60145 7.47631 5.97633C8.10143 5.35121 8.94928 5 9.83333 5H24.8333C25.7174 5 26.5652 5.35121 27.1904 5.97633C27.8155 6.60145 28.1667 7.44928 28.1667 8.33333V18.7167M11.5 11H23.1667M11.5 16.4167H23.1667M11.5 21.8333H18.85" stroke="#1C1C1E" stroke-width="2" stroke-linecap="round" stroke-linejoin="round"/>
</g>
<defs>
<clipPath id="clip0_167_417">
<rect width="40" height="40" fill="white"/>
</clipPath>
</defs>
</svg>
