<svg width="24" height="24" viewBox="0 0 24 24" fill="none" xmlns="http://www.w3.org/2000/svg">
<g clip-path="url(#clip0_446_477)">
<path d="M18.436 20.937H5.56201C4.89897 20.937 4.26309 20.6736 3.79424 20.2048C3.3254 19.7359 3.06201 19.1 3.06201 18.437V5.56299C3.06201 4.89995 3.3254 4.26406 3.79424 3.79522C4.26309 3.32638 4.89897 3.06299 5.56201 3.06299H18.436C19.0991 3.06299 19.7349 3.32638 20.2038 3.79522C20.6726 4.26406 20.936 4.89995 20.936 5.56299V18.437C20.936 19.1 20.6726 19.7359 20.2038 20.2048C19.7349 20.6736 19.0991 20.937 18.436 20.937ZM5.56201 4.06299C5.16419 4.06299 4.78266 4.22102 4.50135 4.50233C4.22005 4.78363 4.06201 5.16516 4.06201 5.56299V18.437C4.06201 18.8348 4.22005 19.2163 4.50135 19.4976C4.78266 19.779 5.16419 19.937 5.56201 19.937H18.436C18.8338 19.937 19.2154 19.779 19.4967 19.4976C19.778 19.2163 19.936 18.8348 19.936 18.437V5.56299C19.936 5.16516 19.778 4.78363 19.4967 4.50233C19.2154 4.22102 18.8338 4.06299 18.436 4.06299H5.56201Z" fill="black"/>
<path d="M6.54396 8.28276C6.41187 8.28047 6.28563 8.2279 6.19096 8.13576C6.09723 8.042 6.04457 7.91484 6.04457 7.78226C6.04457 7.64968 6.09723 7.52253 6.19096 7.42876C6.28539 7.33638 6.41187 7.28407 6.54396 7.28276H7.54996C7.68197 7.28448 7.80831 7.33673 7.90296 7.42876C7.94954 7.4752 7.98651 7.53037 8.01173 7.59112C8.03696 7.65186 8.04995 7.71699 8.04996 7.78276C8.04996 7.91537 7.99728 8.04255 7.90351 8.13632C7.80975 8.23008 7.68257 8.28276 7.54996 8.28276H6.54396ZM6.54396 12.4998C6.4121 12.4973 6.28601 12.4452 6.19096 12.3538C6.1444 12.3073 6.10746 12.2521 6.08225 12.1914C6.05704 12.1306 6.04407 12.0655 6.04407 11.9998C6.04407 11.934 6.05704 11.8689 6.08225 11.8081C6.10746 11.7474 6.1444 11.6922 6.19096 11.6458C6.28562 11.5537 6.41195 11.5015 6.54396 11.4998H7.54996C7.68187 11.502 7.80802 11.5542 7.90296 11.6458C7.94952 11.6922 7.98647 11.7474 8.01167 11.8081C8.03688 11.8689 8.04985 11.934 8.04985 11.9998C8.04985 12.0655 8.03688 12.1306 8.01167 12.1914C7.98647 12.2521 7.94952 12.3073 7.90296 12.3538C7.80831 12.4458 7.68197 12.498 7.54996 12.4998H6.54396ZM6.54396 16.7198C6.41187 16.7175 6.28563 16.6649 6.19096 16.5728C6.09723 16.479 6.04457 16.3518 6.04457 16.2193C6.04457 16.0867 6.09723 15.9595 6.19096 15.8658C6.28562 15.7737 6.41195 15.7215 6.54396 15.7198H7.54996C7.68197 15.7215 7.80831 15.7737 7.90296 15.8658C7.94954 15.9122 7.98651 15.9674 8.01173 16.0281C8.03696 16.0889 8.04995 16.154 8.04996 16.2198C8.04996 16.3524 7.99728 16.4795 7.90351 16.5733C7.80975 16.6671 7.68257 16.7198 7.54996 16.7198H6.54396ZM10.554 8.28076C10.4214 8.28076 10.2942 8.22808 10.2004 8.13431C10.1066 8.04055 10.054 7.91337 10.054 7.78076C10.054 7.64815 10.1066 7.52098 10.2004 7.42721C10.2942 7.33344 10.4214 7.28076 10.554 7.28076H17.454C17.5866 7.28076 17.7137 7.33344 17.8075 7.42721C17.9013 7.52098 17.954 7.64815 17.954 7.78076C17.954 7.91337 17.9013 8.04055 17.8075 8.13431C17.7137 8.22808 17.5866 8.28076 17.454 8.28076H10.554ZM10.554 12.4998C10.4214 12.4998 10.2942 12.4471 10.2004 12.3533C10.1066 12.2595 10.054 12.1324 10.054 11.9998C10.054 11.8672 10.1066 11.74 10.2004 11.6462C10.2942 11.5524 10.4214 11.4998 10.554 11.4998H17.454C17.5866 11.4998 17.7137 11.5524 17.8075 11.6462C17.9013 11.74 17.954 11.8672 17.954 11.9998C17.954 12.1324 17.9013 12.2595 17.8075 12.3533C17.7137 12.4471 17.5866 12.4998 17.454 12.4998H10.554ZM10.554 16.7178C10.4214 16.7178 10.2942 16.6651 10.2004 16.5713C10.1066 16.4775 10.054 16.3504 10.054 16.2178C10.054 16.0852 10.1066 15.958 10.2004 15.8642C10.2942 15.7704 10.4214 15.7178 10.554 15.7178H17.454C17.5866 15.7178 17.7137 15.7704 17.8075 15.8642C17.9013 15.958 17.954 16.0852 17.954 16.2178C17.954 16.3504 17.9013 16.4775 17.8075 16.5713C17.7137 16.6651 17.5866 16.7178 17.454 16.7178H10.554Z" fill="black"/>
</g>
<defs>
<clipPath id="clip0_446_477">
<rect width="24" height="24" fill="white"/>
</clipPath>
</defs>
</svg>
