<svg width="40" height="40" viewBox="0 0 40 40" fill="none" xmlns="http://www.w3.org/2000/svg">
<g clip-path="url(#clip0_80_938)">
<path d="M30.6746 7.4229L28.3286 5.07407C27.6722 4.41434 26.8915 3.89135 26.0316 3.53535C25.1718 3.17934 24.2499 2.99741 23.3193 3.00007H14.3333C12.4554 3.00232 10.655 3.74932 9.32714 5.07721C7.99925 6.40511 7.25225 8.20547 7.25 10.0834V29.9167C7.25225 31.7947 7.99925 33.595 9.32714 34.9229C10.655 36.2508 12.4554 36.9978 14.3333 37.0001H25.6667C27.5446 36.9978 29.345 36.2508 30.6729 34.9229C32.0008 33.595 32.7478 31.7947 32.75 29.9167V12.4308C32.7523 11.5003 32.57 10.5786 32.2138 9.71902C31.8576 8.85942 31.3344 8.079 30.6746 7.4229V7.4229ZM28.6714 9.42607C28.8724 9.62627 29.0523 9.84653 29.2083 10.0834H25.6667V6.54173C25.9032 6.69944 26.1238 6.87973 26.3254 7.08007L28.6714 9.42607ZM29.9167 29.9167C29.9167 31.0439 29.4689 32.1249 28.6719 32.9219C27.8748 33.719 26.7938 34.1667 25.6667 34.1667H14.3333C13.2062 34.1667 12.1252 33.719 11.3281 32.9219C10.5311 32.1249 10.0833 31.0439 10.0833 29.9167V10.0834C10.0833 8.95623 10.5311 7.87523 11.3281 7.0782C12.1252 6.28117 13.2062 5.8334 14.3333 5.8334H22.8333V10.0834C22.8333 10.8348 23.1318 11.5555 23.6632 12.0869C24.1946 12.6182 24.9152 12.9167 25.6667 12.9167H29.9167V29.9167ZM25.6667 15.7501C26.0424 15.7501 26.4027 15.8993 26.6684 16.165C26.9341 16.4307 27.0833 16.791 27.0833 17.1667C27.0833 17.5425 26.9341 17.9028 26.6684 18.1685C26.4027 18.4341 26.0424 18.5834 25.6667 18.5834H14.3333C13.9576 18.5834 13.5973 18.4341 13.3316 18.1685C13.0659 17.9028 12.9167 17.5425 12.9167 17.1667C12.9167 16.791 13.0659 16.4307 13.3316 16.165C13.5973 15.8993 13.9576 15.7501 14.3333 15.7501H25.6667ZM27.0833 22.8334C27.0833 23.2091 26.9341 23.5695 26.6684 23.8351C26.4027 24.1008 26.0424 24.2501 25.6667 24.2501H14.3333C13.9576 24.2501 13.5973 24.1008 13.3316 23.8351C13.0659 23.5695 12.9167 23.2091 12.9167 22.8334C12.9167 22.4577 13.0659 22.0973 13.3316 21.8317C13.5973 21.566 13.9576 21.4167 14.3333 21.4167H25.6667C26.0424 21.4167 26.4027 21.566 26.6684 21.8317C26.9341 22.0973 27.0833 22.4577 27.0833 22.8334ZM26.8113 27.6685C27.0316 27.9714 27.1228 28.3493 27.0652 28.7194C27.0076 29.0894 26.8058 29.4216 26.5039 29.6433C25.0686 30.6661 23.3686 31.2529 21.6079 31.3334C20.5792 31.3284 19.5818 30.9793 18.7746 30.3417C18.3099 30.023 18.1328 29.9167 17.7829 29.9167C16.8358 30.0633 15.9421 30.4506 15.1876 31.0416C14.8883 31.2549 14.5178 31.3436 14.1544 31.2889C13.791 31.2342 13.463 31.0404 13.2398 30.7484C13.0166 30.4564 12.9156 30.0891 12.9581 29.7241C13.0006 29.359 13.1834 29.0247 13.4678 28.7919C14.7161 27.8228 16.2151 27.2301 17.7886 27.0834C18.7323 27.0985 19.6446 27.4247 20.3839 28.0113C20.7209 28.3144 21.1548 28.4877 21.6079 28.5001C22.7663 28.4133 23.8802 28.0175 24.8337 27.354C25.1377 27.1336 25.5168 27.043 25.8876 27.1019C26.2584 27.1609 26.5907 27.3647 26.8113 27.6685V27.6685Z" fill="black"/>
</g>
<defs>
<clipPath id="clip0_80_938">
<rect width="34" height="34" fill="white" transform="translate(3 3)"/>
</clipPath>
</defs>
</svg>
